<?xml version="1.0" standalone="no"?>
<!DOCTYPE svg PUBLIC "-//W3C//DTD SVG 20010904//EN"
 "http://www.w3.org/TR/2001/REC-SVG-20010904/DTD/svg10.dtd">
<svg version="1.0" xmlns="http://www.w3.org/2000/svg"
 width="455.000000pt" height="256.000000pt" viewBox="0 0 455.000000 256.000000"
 preserveAspectRatio="xMidYMid meet">

<g transform="translate(0.000000,256.000000) scale(0.100000,-0.100000)"
fill="#000000" stroke="none">
<path d="M2602 1923 c-45 -18 -54 -156 -27 -439 27 -283 59 -435 95 -454 32
-17 70 -11 96 15 24 24 24 26 23 188 -2 199 5 221 108 318 111 107 178 114
243 26 17 -23 40 -66 51 -97 28 -74 21 -140 -31 -297 -49 -149 -50 -173 -9
-207 72 -61 121 -10 190 199 28 87 32 113 33 205 0 96 -3 112 -34 190 -28 70
-44 95 -94 145 -75 74 -139 101 -224 92 -69 -7 -161 -52 -229 -112 -28 -25
-53 -45 -56 -45 -3 0 -7 54 -9 119 -2 100 -6 122 -22 140 -18 20 -71 27 -104
14z"/>
<path d="M4180 1851 c-32 -9 -47 -41 -122 -260 -64 -188 -95 -261 -109 -261
-19 0 -99 83 -147 153 -27 40 -74 115 -105 167 -30 53 -67 108 -81 123 -33 36
-78 36 -113 1 -22 -22 -24 -31 -19 -66 15 -90 166 -329 298 -469 89 -96 83
-84 57 -121 -27 -40 -101 -127 -226 -265 -103 -115 -124 -159 -98 -199 9 -14
28 -30 43 -35 41 -16 79 10 198 134 244 254 348 433 473 814 60 182 69 232 44
260 -21 24 -57 33 -93 24z"/>
<path d="M1919 1732 c-73 -21 -163 -68 -196 -104 -36 -39 -90 -148 -124 -248
-28 -83 -32 -109 -32 -205 -1 -121 8 -164 58 -272 63 -137 157 -207 321 -238
115 -22 150 -19 229 19 100 48 158 103 199 189 134 279 107 567 -68 743 -116
115 -247 155 -387 116z m201 -182 c48 -25 101 -89 137 -166 86 -185 -8 -501
-162 -544 -55 -15 -153 -6 -212 20 -110 48 -176 246 -140 416 29 135 100 244
182 280 47 21 149 17 195 -6z"/>
<path d="M1305 1534 c-21 -20 -26 -31 -21 -52 4 -15 9 -106 12 -202 6 -163 5
-179 -16 -240 -23 -67 -61 -140 -84 -159 -32 -27 -64 17 -120 167 -30 78 -53
102 -102 102 -51 0 -68 -32 -89 -171 -4 -25 -21 -51 -60 -92 -31 -31 -61 -57
-69 -57 -29 0 -73 77 -108 188 -19 58 -21 88 -19 228 l2 162 -31 25 c-47 40
-100 25 -129 -37 -26 -52 -28 -159 -6 -316 29 -219 110 -370 216 -405 87 -29
162 -6 258 81 l52 47 42 -40 c54 -52 96 -73 147 -73 88 0 149 52 212 182 72
150 88 236 77 429 -8 140 -22 208 -50 238 -28 30 -79 28 -114 -5z"/>
</g>
</svg>
